#!OML:ASF F:\VICON\USERDATA\INSTALL\rory3\rory3.ASF
:FULLY-SPECIFIED
:DEGREES
513
root 0.78387 16.0581 36.2139 2.80614 4.46838 -0.362071
lowerback 12.6944 0.899811 -4.79934
upperback -4.84727 0.59135 1.99975
thorax -12.5982 0.773964 4.79261
lowerneck -10.2482 -7.42734 -4.82008
upperneck 19.2698 -10.3356 4.53152
head 8.14463 -4.83995 1.22129
rclavicle 5.72748e-015 3.97569e-015
rhumerus -32.397 4.51983 -83.12
rradius 30.7573
rwrist 2.6139
rhand -10.0955 20.3604
rfingers 7.12502
rthumb 15.8916 -9.00751
lclavicle 5.72748e-015 3.97569e-015
lhumerus -37.5952 9.61208 82.3446
lradius 24.6352
lwrist -0.149927
lhand -4.80195 17.8162
lfingers 7.12502
lthumb 20.9837 46.7011
rfemur 9.68656 11.2857 28.9295
rtibia 6.25398
rfoot -13.2201 -13.0099
rtoes 7.07278
lfemur -34.8182 -16.3025 -13.0992
ltibia 29.2874
lfoot -11.4997 15.0721
ltoes 14.2042
514
root 0.816767 16.07 36.3463 3.13511 4.59667 -0.00182789
lowerback 12.149 0.802406 -4.88282
upperback -4.89127 0.453562 1.858
thorax -12.2993 0.699513 4.70954
lowerneck -10.0781 -7.33381 -4.83501
upperneck 19.103 -10.2213 4.6358
head 8.059 -4.78322 1.27942
rclavicle 1.07468e-014 8.74653e-015
rhumerus -32.2857 4.97329 -83.2395
rradius 30.6125
rwrist 2.08932
rhand -10.2508 20.2409
rfingers 7.12502
rthumb 15.7421 -9.13886
lclavicle 1.07468e-014 8.74653e-015
lhumerus -37.7266 9.65514 82.322
lradius 24.7038
lwrist -0.151463
lhand -4.91405 17.9265
lfingers 7.12502
lthumb 20.876 46.8233
rfemur 13.4427 10.9584 28.3522
rtibia -4.13472e-014
rfoot -10.6507 -13.0671
rtoes 6.66395
lfemur -35.2695 -17.8239 -12.9404
ltibia 28.4593
lfoot -12.1477 16.4626
ltoes 12.7805
515
root 0.837841 16.0629 36.473 3.18558 4.43538 -0.0822256
lowerback 11.8535 0.806973 -4.80987
upperback -4.83916 0.488859 1.87816
thorax -12.0633 0.702855 4.6788
lowerneck -9.8275 -7.22923 -4.78508
upperneck 18.8324 -10.0948 4.71614
head 7.91902 -4.7217 1.32492
rclavicle 7.76503e-015 -1.39149e-014
rhumerus -32.1714 5.10482 -83.3
rradius 30.4916
rwrist 1.87955
rhand -10.4939 20.2456
rfingers 7.12502
rthumb 15.508 -9.15244
lclavicle 7.76503e-015 -1.39149e-014
lhumerus -37.7721 9.85531 82.1716
lradius 24.584
lwrist -0.405503
lhand -4.76421 17.875
lfingers 7.12502
lthumb 21.0199 46.7559
rfemur 13.9036 10.8812 28.4341
rtibia 5.725e-014
rfoot -10.7466 -12.8867
rtoes 4.9625
lfemur -35.5401 -19.289 -12.1454
ltibia 27.782
lfoot -12.7898 17.858
ltoes 11.6556
516
root 0.844432 16.0533 36.5812 2.99621 4.1456 -0.601632
lowerback 12.0697 0.871754 -4.55053
upperback -4.7797 0.632567 2.06591
thorax -12.1414 0.76135 4.708
lowerneck -9.82354 -7.2237 -4.78125
upperneck 18.7991 -10.0926 4.74742
head 7.90862 -4.71817 1.33528
rclavicle 2.26118e-015 -5.1684e-015
rhumerus -32.0786 4.94502 -83.2671
rradius 30.464
rwrist 1.98981
rhand -10.6665 20.5428
rfingers 7.12502
rthumb 15.3417 -8.8681
lclavicle 2.26118e-015 -5.1684e-015
lhumerus -37.7816 9.96912 82.0723
lradius 24.3944
lwrist -0.555707
lhand -4.59115 17.975
lfingers 7.12502
lthumb 21.1862 46.8373
rfemur 14.4622 10.9069 29.0792
rtibia 9.54166e-015
rfoot -10.7236 -12.6853
rtoes 3.81563
lfemur -35.6988 -20.7956 -10.6241
ltibia 27.1608
lfoot -14.9161 18.3832
ltoes 17.8993
517
root 0.861542 16.0451 36.6882 2.96166 3.92109 -0.931401
lowerback 12.2413 0.94227 -4.28423
upperback -4.79417 0.777705 2.16219
thorax -12.2748 0.818266 4.63135
lowerneck -9.9298 -7.2873 -4.78951
upperneck 18.8373 -10.1693 4.70623
head 7.94259 -4.75614 1.31013
rclavicle 1.88845e-015 2.10712e-014
rhumerus -32.0927 4.90953 -83.2231
rradius 30.535
rwrist 2.02528
rhand -10.7162 20.5257
rfingers 7.12502
rthumb 15.2938 -8.88883
lclavicle 1.88845e-015 2.10712e-014
lhumerus -37.7789 9.90992 82.0892
lradius 24.2355
lwrist -0.637754
lhand -4.44414 18.0791
lfingers 7.12502
lthumb 21.3274 46.9255
rfemur 14.8541 10.8951 29.4124
rtibia -6.04305e-014
rfoot -10.7691 -12.3789
rtoes 3.60427
lfemur -35.9255 -21.5087 -9.92302
ltibia 26.6719
lfoot -15.1677 19.4443
ltoes 17.3977
518
root 0.890695 16.0403 36.804 3.11462 3.8376 -0.579046
lowerback 12.1559 0.941195 -4.5494
upperback -4.82356 0.720791 2.05027
thorax -12.2545 0.806608 4.6713
lowerneck -10.0407 -7.2627 -4.71422
upperneck 18.8619 -10.1288 4.62371
head 7.95993 -4.73675 1.27144
rclavicle -1.46604e-015 9.54166e-015
rhumerus -32.0221 4.98383 -83.226
rradius 30.4062
rwrist 2.21806
rhand -10.6434 20.4515
rfingers 7.12502
rthumb 15.364 -8.95767
lclavicle -1.46604e-015 9.54166e-015
lhumerus -37.7761 9.93301 82.0719
lradius 24.0911
lwrist -0.593078
lhand -4.65505 18.1039
lfingers 7.12502
lthumb 21.1248 46.9731
rfemur 15.184 10.7527 28.9236
rtibia 6.36111e-015
rfoot -10.95 -12.0492
rtoes 2.87782
lfemur -36.2158 -22.5588 -9.88679
ltibia 26.1731
lfoot -15.6789 20.2278
ltoes 17.7928
519
root 0.928447 16.0314 36.9405 3.20194 3.84724 -0.0448021
lowerback 11.8169 0.859092 -4.92704
upperback -4.79065 0.543473 1.89549
thorax -11.9956 0.735579 4.75192
lowerneck -10.0563 -7.17499 -4.62603
upperneck 18.8972 -10.0088 4.54695
head 7.95939 -4.68015 1.24494
rclavicle 4.98204e-015 1.98785e-015
rhumerus -31.9052 5.23135 -83.2792
rradius 30.1066
rwrist 2.24729
rhand -10.5512 20.4912
rfingers 7.12502
rthumb 15.4528 -8.9111
lclavicle 4.98204e-015 1.98785e-015
lhumerus -37.9246 10.3862 81.8173
lradius 23.8956
lwrist -0.876986
lhand -4.87397 17.9873
lfingers 7.12502
lthumb 20.9145 46.8798
rfemur 15.7484 10.5024 28.2323
rtibia 2.22639e-014
rfoot -11.247 -11.7465
rtoes 1.91425
lfemur -36.2516 -23.6931 -10.1973
ltibia 25.7023
lfoot -15.9813 20.8875
ltoes 17.0502
520
root 0.960502 16.0241 37.0818 3.16552 3.76622 0.0856726
lowerback 11.5291 0.826022 -4.96666
upperback -4.74251 0.500281 1.83908
thorax -11.7611 0.706693 4.71844
lowerneck -10.0794 -7.16288 -4.59078
upperneck 18.9618 -10.002 4.54728
head 7.9828 -4.67315 1.23854
rclavicle 4.21175e-015 -1.59028e-014
rhumerus -31.8878 5.12244 -83.2544
rradius 29.8965
rwrist 2.57513
rhand -10.3796 20.4802
rfingers 7.12502
rthumb 15.618 -8.90927
lclavicle 4.21175e-015 -1.59028e-014
lhumerus -38.1023 10.4433 81.6896
lradius 23.805
lwrist -1.03167
lhand -4.68362 18.238
lfingers 7.12502
lthumb 21.0974 47.1103
rfemur 16.3543 10.3459 27.9854
rtibia 9.54166e-015
rfoot -11.5857 -11.3449
rtoes 2.58038
lfemur -36.052 -24.3814 -10.2826
ltibia 25.3207
lfoot -16.2708 21.149
ltoes 16.6353
521
root 0.970804 16.0201 37.1991 2.9725 3.49695 -0.63937
lowerback 11.7297 0.872486 -4.48006
upperback -4.69851 0.660152 2.06788
thorax -11.8445 0.758302 4.65995
lowerneck -10.4116 -7.19864 -4.52774
upperneck 19.1982 -10.0599 4.51848
head 8.11931 -4.68844 1.19707
rclavicle -1.6965e-014 -4.37326e-015
rhumerus -31.8335 4.79746 -83.1398
rradius 29.7095
rwrist 3.27279
rhand -10.0994 20.5173
rfingers 7.12502
rthumb 15.888 -8.85088
lclavicle -1.6965e-014 -4.37326e-015
lhumerus -38.1637 10.5461 81.5856
lradius 23.6544
lwrist -1.09993
lhand -4.56392 18.4558
lfingers 7.12502
lthumb 21.2124 47.3152
rfemur 16.8303 10.3761 28.7595
rtibia -2.8625e-014
rfoot -11.5703 -10.9821
rtoes 3.53349
lfemur -35.8441 -24.325 -9.51457
ltibia 25.0838
lfoot -16.2528 20.8935
ltoes 16.4399
